<mxfile host="app.diagrams.net" agent="Mozilla/5.0 (Windows NT 10.0; Win64; x64) AppleWebKit/537.36 (KHTML, like Gecko) Chrome/133.0.0.0 Safari/537.36" version="26.0.14">
  <diagram name="第 1 页" id="62La-dQI2bGcCiMXstRk">
    <mxGraphModel dx="1674" dy="746" grid="1" gridSize="10" guides="1" tooltips="1" connect="1" arrows="1" fold="1" page="1" pageScale="1" pageWidth="827" pageHeight="1169" math="0" shadow="0">
      <root>
        <mxCell id="0" />
        <mxCell id="1" parent="0" />
        <mxCell id="4flJlC9al0kMnTYbHgAi-1" value="&lt;font style=&quot;font-size: 18px;&quot;&gt;首頁&lt;/font&gt;" style="strokeWidth=2;html=1;shape=mxgraph.flowchart.start_1;whiteSpace=wrap;" vertex="1" parent="1">
          <mxGeometry x="350" y="90" width="170" height="60" as="geometry" />
        </mxCell>
        <mxCell id="4flJlC9al0kMnTYbHgAi-8" value="" style="endArrow=none;html=1;rounded=0;entryX=0.5;entryY=1;entryDx=0;entryDy=0;entryPerimeter=0;exitX=0;exitY=0.5;exitDx=0;exitDy=0;exitPerimeter=0;" edge="1" parent="1" target="4flJlC9al0kMnTYbHgAi-1">
          <mxGeometry width="50" height="50" relative="1" as="geometry">
            <mxPoint x="435" y="235" as="sourcePoint" />
            <mxPoint x="480" y="180" as="targetPoint" />
          </mxGeometry>
        </mxCell>
        <mxCell id="4flJlC9al0kMnTYbHgAi-15" style="edgeStyle=orthogonalEdgeStyle;rounded=0;orthogonalLoop=1;jettySize=auto;html=1;exitX=0;exitY=0.5;exitDx=0;exitDy=0;exitPerimeter=0;" edge="1" parent="1" source="4flJlC9al0kMnTYbHgAi-11">
          <mxGeometry relative="1" as="geometry">
            <mxPoint x="170" y="270" as="targetPoint" />
          </mxGeometry>
        </mxCell>
        <mxCell id="4flJlC9al0kMnTYbHgAi-17" style="edgeStyle=orthogonalEdgeStyle;rounded=0;orthogonalLoop=1;jettySize=auto;html=1;exitX=0.25;exitY=0.5;exitDx=0;exitDy=0;exitPerimeter=0;" edge="1" parent="1" source="4flJlC9al0kMnTYbHgAi-11">
          <mxGeometry relative="1" as="geometry">
            <mxPoint x="340" y="270" as="targetPoint" />
            <Array as="points">
              <mxPoint x="340" y="235" />
            </Array>
          </mxGeometry>
        </mxCell>
        <mxCell id="4flJlC9al0kMnTYbHgAi-18" style="edgeStyle=orthogonalEdgeStyle;rounded=0;orthogonalLoop=1;jettySize=auto;html=1;exitX=0.75;exitY=0.5;exitDx=0;exitDy=0;exitPerimeter=0;" edge="1" parent="1" source="4flJlC9al0kMnTYbHgAi-11">
          <mxGeometry relative="1" as="geometry">
            <mxPoint x="590" y="270" as="targetPoint" />
          </mxGeometry>
        </mxCell>
        <mxCell id="4flJlC9al0kMnTYbHgAi-19" style="edgeStyle=orthogonalEdgeStyle;rounded=0;orthogonalLoop=1;jettySize=auto;html=1;exitX=1;exitY=0.5;exitDx=0;exitDy=0;exitPerimeter=0;" edge="1" parent="1" source="4flJlC9al0kMnTYbHgAi-11">
          <mxGeometry relative="1" as="geometry">
            <mxPoint x="740" y="270" as="targetPoint" />
          </mxGeometry>
        </mxCell>
        <mxCell id="4flJlC9al0kMnTYbHgAi-36" style="edgeStyle=orthogonalEdgeStyle;rounded=0;orthogonalLoop=1;jettySize=auto;html=1;" edge="1" parent="1" source="4flJlC9al0kMnTYbHgAi-11">
          <mxGeometry relative="1" as="geometry">
            <mxPoint x="930" y="270" as="targetPoint" />
          </mxGeometry>
        </mxCell>
        <mxCell id="4flJlC9al0kMnTYbHgAi-11" value="" style="line;strokeWidth=2;html=1;" vertex="1" parent="1">
          <mxGeometry x="170" y="230" width="570" height="10" as="geometry" />
        </mxCell>
        <mxCell id="4flJlC9al0kMnTYbHgAi-20" value="&lt;font style=&quot;font-size: 14px;&quot;&gt;新聞頁面&lt;/font&gt;" style="rounded=0;whiteSpace=wrap;html=1;" vertex="1" parent="1">
          <mxGeometry x="110" y="270" width="120" height="60" as="geometry" />
        </mxCell>
        <mxCell id="4flJlC9al0kMnTYbHgAi-21" value="" style="endArrow=classic;html=1;rounded=0;exitX=0.5;exitY=1;exitDx=0;exitDy=0;" edge="1" parent="1" source="4flJlC9al0kMnTYbHgAi-20">
          <mxGeometry width="50" height="50" relative="1" as="geometry">
            <mxPoint x="180" y="430" as="sourcePoint" />
            <mxPoint x="170" y="390" as="targetPoint" />
          </mxGeometry>
        </mxCell>
        <mxCell id="4flJlC9al0kMnTYbHgAi-22" value="&lt;font style=&quot;font-size: 14px;&quot;&gt;新聞文章&lt;/font&gt;" style="rounded=0;whiteSpace=wrap;html=1;" vertex="1" parent="1">
          <mxGeometry x="110" y="390" width="120" height="60" as="geometry" />
        </mxCell>
        <mxCell id="4flJlC9al0kMnTYbHgAi-23" value="&lt;font style=&quot;font-size: 14px;&quot;&gt;看板頁面&lt;/font&gt;" style="rounded=0;whiteSpace=wrap;html=1;" vertex="1" parent="1">
          <mxGeometry x="280" y="270" width="120" height="60" as="geometry" />
        </mxCell>
        <mxCell id="4flJlC9al0kMnTYbHgAi-24" value="" style="endArrow=classic;html=1;rounded=0;exitX=0.5;exitY=1;exitDx=0;exitDy=0;" edge="1" parent="1">
          <mxGeometry width="50" height="50" relative="1" as="geometry">
            <mxPoint x="339.5" y="330" as="sourcePoint" />
            <mxPoint x="339.5" y="390" as="targetPoint" />
            <Array as="points">
              <mxPoint x="339.5" y="360" />
            </Array>
          </mxGeometry>
        </mxCell>
        <mxCell id="4flJlC9al0kMnTYbHgAi-25" value="&lt;font style=&quot;font-size: 14px;&quot;&gt;討論區&lt;/font&gt;" style="rounded=0;whiteSpace=wrap;html=1;" vertex="1" parent="1">
          <mxGeometry x="280" y="390" width="120" height="60" as="geometry" />
        </mxCell>
        <mxCell id="4flJlC9al0kMnTYbHgAi-26" value="&lt;font style=&quot;font-size: 14px;&quot;&gt;會員登入/註冊&lt;/font&gt;" style="rounded=0;whiteSpace=wrap;html=1;" vertex="1" parent="1">
          <mxGeometry x="530" y="270" width="120" height="60" as="geometry" />
        </mxCell>
        <mxCell id="4flJlC9al0kMnTYbHgAi-27" value="" style="endArrow=classic;html=1;rounded=0;exitX=0.5;exitY=1;exitDx=0;exitDy=0;" edge="1" parent="1">
          <mxGeometry width="50" height="50" relative="1" as="geometry">
            <mxPoint x="589.5" y="330" as="sourcePoint" />
            <mxPoint x="589.5" y="390" as="targetPoint" />
            <Array as="points">
              <mxPoint x="589.5" y="360" />
            </Array>
          </mxGeometry>
        </mxCell>
        <mxCell id="4flJlC9al0kMnTYbHgAi-28" value="&lt;font style=&quot;font-size: 14px;&quot;&gt;個人頁面&lt;/font&gt;" style="rounded=0;whiteSpace=wrap;html=1;" vertex="1" parent="1">
          <mxGeometry x="530" y="390" width="120" height="60" as="geometry" />
        </mxCell>
        <mxCell id="4flJlC9al0kMnTYbHgAi-29" value="&lt;font style=&quot;font-size: 14px;&quot;&gt;商城&lt;/font&gt;" style="rounded=0;whiteSpace=wrap;html=1;" vertex="1" parent="1">
          <mxGeometry x="680" y="270" width="120" height="60" as="geometry" />
        </mxCell>
        <mxCell id="4flJlC9al0kMnTYbHgAi-30" value="" style="endArrow=classic;html=1;rounded=0;exitX=0.5;exitY=1;exitDx=0;exitDy=0;" edge="1" parent="1">
          <mxGeometry width="50" height="50" relative="1" as="geometry">
            <mxPoint x="739.5" y="330" as="sourcePoint" />
            <mxPoint x="739.5" y="390" as="targetPoint" />
            <Array as="points">
              <mxPoint x="739.5" y="360" />
            </Array>
          </mxGeometry>
        </mxCell>
        <mxCell id="4flJlC9al0kMnTYbHgAi-31" value="&lt;font style=&quot;font-size: 14px;&quot;&gt;商品頁面&lt;/font&gt;" style="rounded=0;whiteSpace=wrap;html=1;" vertex="1" parent="1">
          <mxGeometry x="680" y="390" width="120" height="60" as="geometry" />
        </mxCell>
        <mxCell id="4flJlC9al0kMnTYbHgAi-32" value="&lt;font style=&quot;font-size: 14px;&quot;&gt;討論文章&lt;/font&gt;" style="rounded=0;whiteSpace=wrap;html=1;" vertex="1" parent="1">
          <mxGeometry x="230" y="510" width="120" height="60" as="geometry" />
        </mxCell>
        <mxCell id="4flJlC9al0kMnTYbHgAi-33" value="" style="endArrow=classic;html=1;rounded=0;exitX=0.5;exitY=1;exitDx=0;exitDy=0;entryX=0.5;entryY=0;entryDx=0;entryDy=0;" edge="1" parent="1" target="4flJlC9al0kMnTYbHgAi-32">
          <mxGeometry width="50" height="50" relative="1" as="geometry">
            <mxPoint x="339.5" y="450" as="sourcePoint" />
            <mxPoint x="339.5" y="510" as="targetPoint" />
            <Array as="points" />
          </mxGeometry>
        </mxCell>
        <mxCell id="4flJlC9al0kMnTYbHgAi-34" value="" style="endArrow=classic;html=1;rounded=0;exitX=0.5;exitY=1;exitDx=0;exitDy=0;" edge="1" parent="1" source="4flJlC9al0kMnTYbHgAi-25">
          <mxGeometry width="50" height="50" relative="1" as="geometry">
            <mxPoint x="400" y="530" as="sourcePoint" />
            <mxPoint x="390" y="510" as="targetPoint" />
          </mxGeometry>
        </mxCell>
        <mxCell id="4flJlC9al0kMnTYbHgAi-35" value="&lt;font style=&quot;font-size: 14px;&quot;&gt;發文&lt;/font&gt;" style="rounded=0;whiteSpace=wrap;html=1;" vertex="1" parent="1">
          <mxGeometry x="360" y="510" width="120" height="60" as="geometry" />
        </mxCell>
        <mxCell id="4flJlC9al0kMnTYbHgAi-37" value="&lt;font style=&quot;font-size: 14px;&quot;&gt;客服中心&lt;/font&gt;" style="rounded=0;whiteSpace=wrap;html=1;" vertex="1" parent="1">
          <mxGeometry x="870" y="270" width="120" height="60" as="geometry" />
        </mxCell>
        <mxCell id="4flJlC9al0kMnTYbHgAi-39" value="" style="endArrow=classic;html=1;rounded=0;exitX=0.5;exitY=1;exitDx=0;exitDy=0;" edge="1" parent="1">
          <mxGeometry width="50" height="50" relative="1" as="geometry">
            <mxPoint x="739.5" y="450" as="sourcePoint" />
            <mxPoint x="739.5" y="510" as="targetPoint" />
            <Array as="points">
              <mxPoint x="739.5" y="480" />
            </Array>
          </mxGeometry>
        </mxCell>
        <mxCell id="4flJlC9al0kMnTYbHgAi-40" value="&lt;font style=&quot;font-size: 14px;&quot;&gt;結帳畫面&lt;/font&gt;" style="rounded=0;whiteSpace=wrap;html=1;" vertex="1" parent="1">
          <mxGeometry x="680" y="510" width="120" height="60" as="geometry" />
        </mxCell>
        <mxCell id="4flJlC9al0kMnTYbHgAi-41" value="" style="endArrow=classic;html=1;rounded=0;exitX=0.5;exitY=1;exitDx=0;exitDy=0;" edge="1" parent="1">
          <mxGeometry width="50" height="50" relative="1" as="geometry">
            <mxPoint x="739.5" y="570" as="sourcePoint" />
            <mxPoint x="739.5" y="630" as="targetPoint" />
            <Array as="points">
              <mxPoint x="739.5" y="600" />
            </Array>
          </mxGeometry>
        </mxCell>
        <mxCell id="4flJlC9al0kMnTYbHgAi-42" value="&lt;font style=&quot;font-size: 14px;&quot;&gt;訂單記錄&lt;/font&gt;" style="rounded=0;whiteSpace=wrap;html=1;" vertex="1" parent="1">
          <mxGeometry x="680" y="630" width="120" height="60" as="geometry" />
        </mxCell>
      </root>
    </mxGraphModel>
  </diagram>
</mxfile>
